<?xml version="1.0" encoding="UTF-8" standalone="no"?>
<svg xmlns:dc="http://purl.org/dc/elements/1.1/" xmlns:cc="http://creativecommons.org/ns#" xmlns:rdf="http://www.w3.org/1999/02/22-rdf-syntax-ns#" xmlns:svg="http://www.w3.org/2000/svg" xmlns="http://www.w3.org/2000/svg" xmlns:sodipodi="http://sodipodi.sourceforge.net/DTD/sodipodi-0.dtd" xmlns:inkscape="http://www.inkscape.org/namespaces/inkscape" viewBox="0 0 635.15 101.53" version="1.1" id="svg130">
  <metadata id="metadata134"></metadata>
  <defs id="defs4">
    <style id="style2">.cls-1{fill:#003b71;}</style>
  </defs>
  <title id="title6">TFRI_Horizontal SVG</title>
  <g id="Layer_2" style="fill:#002e52;fill-opacity:1">
    <g id="Layer_1-2" style="fill:#002e52;fill-opacity:1">
      <rect class="cls-1" x="105.79" y="53.91" width="529.36" height="0.72" id="rect8" style="fill:#002e52;fill-opacity:1" />
      <polygon class="cls-1" points="119.57 46.57 123.66 46.57 123.66 35.4 128.09 35.4 128.09 31.81 115.14 31.81 115.14 35.4 119.57 35.4 119.57 46.57" id="polygon10" style="fill:#002e52;fill-opacity:1" />
      <polygon class="cls-1" points="138.61 40.96 143.86 40.96 143.86 46.57 147.95 46.57 147.95 31.81 143.86 31.81 143.86 37.34 138.61 37.34 138.61 31.81 134.52 31.81 134.52 46.57 138.61 46.57 138.61 40.96" id="polygon12" style="fill:#002e52;fill-opacity:1" />
      <polygon class="cls-1" points="167.19 43.09 159.26 43.09 159.26 40.75 166.34 40.75 166.34 37.53 159.26 37.53 159.26 35.29 167.08 35.29 167.08 31.81 155.21 31.81 155.21 46.57 167.19 46.57 167.19 43.09" id="polygon14" style="fill:#002e52;fill-opacity:1" />
      <polygon class="cls-1" points="184.63 46.57 188.72 46.57 188.72 35.4 193.15 35.4 193.15 31.81 180.2 31.81 180.2 35.4 184.63 35.4 184.63 46.57" id="polygon16" style="fill:#002e52;fill-opacity:1" />
      <polygon class="cls-1" points="211.56 43.09 203.63 43.09 203.63 40.75 210.72 40.75 210.72 37.53 203.63 37.53 203.63 35.29 211.46 35.29 211.46 31.81 199.58 31.81 199.58 46.57 211.56 46.57 211.56 43.09" id="polygon18" style="fill:#002e52;fill-opacity:1" />
      <path class="cls-1" d="M223,42.1h1.8l3,4.47h4.72L229,41.43a4.67,4.67,0,0,0,3-4.54v0a4.58,4.58,0,0,0-1.31-3.44,6.46,6.46,0,0,0-4.81-1.6h-7V46.57H223Zm0-6.75h2.68c1.37,0,2.22.6,2.22,1.75v0c0,1.07-.81,1.75-2.2,1.75H223Z" id="path20" style="fill:#002e52;fill-opacity:1" />
      <path class="cls-1" d="M242.82,42.1h1.79l3,4.47h4.73l-3.52-5.14a4.67,4.67,0,0,0,3-4.54v0a4.58,4.58,0,0,0-1.31-3.44,6.45,6.45,0,0,0-4.8-1.6h-7V46.57h4.09Zm0-6.75h2.68c1.37,0,2.21.6,2.21,1.75v0c0,1.07-.8,1.75-2.19,1.75h-2.7Z" id="path22" style="fill:#002e52;fill-opacity:1" />
      <polygon class="cls-1" points="262.26 46.57 266.38 46.57 266.38 40.98 271.98 31.81 267.41 31.81 264.35 37.19 261.31 31.81 256.65 31.81 262.26 41.05 262.26 46.57" id="polygon24" style="fill:#002e52;fill-opacity:1" />
      <polygon class="cls-1" points="289.72 41.3 296.7 41.3 296.7 37.91 289.72 37.91 289.72 35.4 297.44 35.4 297.44 31.81 285.63 31.81 285.63 46.57 289.72 46.57 289.72 41.3" id="polygon26" style="fill:#002e52;fill-opacity:1" />
      <path class="cls-1" d="M311.15,46.87a7.74,7.74,0,0,0,8-7.68v0a8,8,0,0,0-15.9,0v0A7.66,7.66,0,0,0,311.15,46.87Zm-3.73-7.72a3.75,3.75,0,0,1,3.73-3.94,3.82,3.82,0,0,1,3.79,4v0a3.77,3.77,0,0,1-3.75,4,3.84,3.84,0,0,1-3.77-4Z" id="path28" style="fill:#002e52;fill-opacity:1" />
      <polygon class="cls-1" points="327.24 46.57 330.09 42.12 332.91 46.57 337.62 46.57 332.56 39.02 337.4 31.81 332.81 31.81 330.17 35.97 327.56 31.81 322.86 31.81 327.7 39.07 322.64 46.57 327.24 46.57" id="polygon30" style="fill:#002e52;fill-opacity:1" />
      <path class="cls-1" d="M352.65,43.19h1.81l2.25,3.36h2.7l-2.57-3.75a3.25,3.25,0,0,0,2.25-3.25v0a3.28,3.28,0,0,0-.9-2.4,4.17,4.17,0,0,0-3.06-1.06h-4.79V46.55h2.31Zm0-5h2.29c1.12,0,1.81.51,1.81,1.5v0c0,.88-.64,1.48-1.77,1.48h-2.33Z" id="path32" style="fill:#002e52;fill-opacity:1" />
      <polygon class="cls-1" points="375.01 44.49 369.32 44.49 369.32 42.29 374.26 42.29 374.26 40.24 369.32 40.24 369.32 38.11 374.94 38.11 374.94 36.06 367.02 36.06 367.02 46.55 375.01 46.55 375.01 44.49" id="polygon34" style="fill:#002e52;fill-opacity:1" />
      <path class="cls-1" d="M386.69,44.66a4.84,4.84,0,0,1-3.13-1.27L382.2,45a6.69,6.69,0,0,0,4.45,1.68c2.26,0,3.85-1.17,3.85-3.25v0c0-1.83-1.2-2.6-3.33-3.15-1.81-.47-2.26-.69-2.26-1.38v0c0-.51.46-.91,1.35-.91A4.91,4.91,0,0,1,389,39l1.2-1.74a6.06,6.06,0,0,0-3.89-1.33c-2.15,0-3.67,1.26-3.67,3.16v0c0,2.08,1.36,2.67,3.47,3.21,1.76.45,2.12.75,2.12,1.33v0C388.21,44.28,387.64,44.66,386.69,44.66Z" id="path36" style="fill:#002e52;fill-opacity:1" />
      <polygon class="cls-1" points="406.34 44.49 400.65 44.49 400.65 42.29 405.6 42.29 405.6 40.24 400.65 40.24 400.65 38.11 406.27 38.11 406.27 36.06 398.36 36.06 398.36 46.55 406.34 46.55 406.34 44.49" id="polygon38" style="fill:#002e52;fill-opacity:1" />
      <path class="cls-1" d="M416.66,44.19h4.44l1,2.36h2.41L420,36h-2.13l-4.49,10.57h2.35Zm2.22-5.43,1.39,3.4h-2.78Z" id="path40" style="fill:#002e52;fill-opacity:1" />
      <path class="cls-1" d="M434.25,43.19h1.81l2.25,3.36H441l-2.56-3.75a3.25,3.25,0,0,0,2.25-3.25v0a3.32,3.32,0,0,0-.9-2.4,4.17,4.17,0,0,0-3.06-1.06h-4.79V46.55h2.31Zm0-5h2.29c1.12,0,1.81.51,1.81,1.5v0c0,.88-.64,1.48-1.77,1.48h-2.33Z" id="path42" style="fill:#002e52;fill-opacity:1" />
      <path class="cls-1" d="M453.54,46.73a5.35,5.35,0,0,0,4.3-1.88l-1.47-1.48a3.78,3.78,0,0,1-2.76,1.23,3.12,3.12,0,0,1-3-3.3v0a3.1,3.1,0,0,1,3-3.26,3.9,3.9,0,0,1,2.69,1.18l1.46-1.69a5.39,5.39,0,0,0-4.13-1.62,5.33,5.33,0,0,0-5.47,5.42v0A5.3,5.3,0,0,0,453.54,46.73Z" id="path44" style="fill:#002e52;fill-opacity:1" />
      <polygon class="cls-1" points="467.84 42.34 472.1 42.34 472.1 46.55 474.4 46.55 474.4 36.06 472.1 36.06 472.1 40.21 467.84 40.21 467.84 36.06 465.53 36.06 465.53 46.55 467.84 46.55 467.84 42.34" id="polygon46" style="fill:#002e52;fill-opacity:1" />
      <rect class="cls-1" x="493.22" y="36.06" width="2.31" height="10.49" id="rect48" style="fill:#002e52;fill-opacity:1" />
      <polygon class="cls-1" points="506.28 39.88 511.36 46.55 513.32 46.55 513.32 36.06 511.05 36.06 511.05 42.52 506.13 36.06 504 36.06 504 46.55 506.28 46.55 506.28 39.88" id="polygon50" style="fill:#002e52;fill-opacity:1" />
      <path class="cls-1" d="M525.47,44.66a4.84,4.84,0,0,1-3.13-1.27L521,45a6.71,6.71,0,0,0,4.45,1.68c2.27,0,3.85-1.17,3.85-3.25v0c0-1.83-1.19-2.6-3.32-3.15-1.81-.47-2.26-.69-2.26-1.38v0c0-.51.46-.91,1.34-.91a4.94,4.94,0,0,1,2.73,1l1.2-1.74a6.09,6.09,0,0,0-3.9-1.33c-2.14,0-3.67,1.26-3.67,3.16v0c0,2.08,1.37,2.67,3.48,3.21,1.75.45,2.11.75,2.11,1.33v0C527,44.28,526.41,44.66,525.47,44.66Z" id="path52" style="fill:#002e52;fill-opacity:1" />
      <polygon class="cls-1" points="539.35 46.55 541.66 46.55 541.66 38.19 544.85 38.19 544.85 36.06 536.16 36.06 536.16 38.19 539.35 38.19 539.35 46.55" id="polygon54" style="fill:#002e52;fill-opacity:1" />
      <rect class="cls-1" x="552.58" y="36.06" width="2.31" height="10.49" id="rect56" style="fill:#002e52;fill-opacity:1" />
      <polygon class="cls-1" points="565.8 46.55 568.1 46.55 568.1 38.19 571.3 38.19 571.3 36.06 562.61 36.06 562.61 38.19 565.8 38.19 565.8 46.55" id="polygon58" style="fill:#002e52;fill-opacity:1" />
      <path class="cls-1" d="M583.29,46.71c2.82,0,4.6-1.56,4.6-4.73V36.06h-2.31v6c0,1.66-.85,2.51-2.26,2.51s-2.26-.88-2.26-2.59V36.06h-2.31v6C578.75,45.14,580.47,46.71,583.29,46.71Z" id="path60" style="fill:#002e52;fill-opacity:1" />
      <polygon class="cls-1" points="598.54 46.55 600.85 46.55 600.85 38.19 604.04 38.19 604.04 36.06 595.35 36.06 595.35 38.19 598.54 38.19 598.54 46.55" id="polygon62" style="fill:#002e52;fill-opacity:1" />
      <polygon class="cls-1" points="619.64 44.49 613.95 44.49 613.95 42.29 618.89 42.29 618.89 40.24 613.95 40.24 613.95 38.11 619.57 38.11 619.57 36.06 611.66 36.06 611.66 46.55 619.64 46.55 619.64 44.49" id="polygon64" style="fill:#002e52;fill-opacity:1" />
      <polygon class="cls-1" points="466.51 65.5 470.94 65.5 470.94 76.68 475.03 76.68 475.03 65.5 479.46 65.5 479.46 61.91 466.51 61.91 466.51 65.5" id="polygon66" style="fill:#002e52;fill-opacity:1" />
      <polygon class="cls-1" points="489.94 70.86 497.03 70.86 497.03 67.63 489.94 67.63 489.94 65.39 497.77 65.39 497.77 61.91 485.89 61.91 485.89 76.68 497.87 76.68 497.87 73.2 489.94 73.2 489.94 70.86" id="polygon68" style="fill:#002e52;fill-opacity:1" />
      <path class="cls-1" d="M518.33,67v0A4.54,4.54,0,0,0,517,63.52a6.46,6.46,0,0,0-4.81-1.61h-7V76.68h4.09V72.21h1.8l3,4.47h4.72l-3.52-5.15A4.66,4.66,0,0,0,518.33,67Zm-4.11.25c0,1.08-.8,1.75-2.2,1.75h-2.7V65.46H512c1.37,0,2.22.59,2.22,1.75Z" id="path70" style="fill:#002e52;fill-opacity:1" />
      <path class="cls-1" d="M538.13,67v0a4.54,4.54,0,0,0-1.31-3.43,6.45,6.45,0,0,0-4.8-1.61h-7V76.68h4.09V72.21h1.79l3,4.47h4.73l-3.52-5.15A4.67,4.67,0,0,0,538.13,67Zm-4.11.25c0,1.08-.8,1.75-2.19,1.75h-2.7V65.46h2.68c1.37,0,2.21.59,2.21,1.75Z" id="path72" style="fill:#002e52;fill-opacity:1" />
      <polygon class="cls-1" points="550.66 67.29 547.62 61.91 542.96 61.91 548.57 71.15 548.57 76.68 552.68 76.68 552.68 71.09 558.29 61.91 553.72 61.91 550.66 67.29" id="polygon74" style="fill:#002e52;fill-opacity:1" />
      <polygon class="cls-1" points="571.94 76.68 576.03 76.68 576.03 71.4 583.01 71.4 583.01 68.01 576.03 68.01 576.03 65.5 583.75 65.5 583.75 61.91 571.94 61.91 571.94 76.68" id="polygon76" style="fill:#002e52;fill-opacity:1" />
      <path class="cls-1" d="M597.5,61.62a7.74,7.74,0,0,0-8,7.68v0A7.66,7.66,0,0,0,597.46,77a7.74,7.74,0,0,0,8-7.67v0A7.66,7.66,0,0,0,597.5,61.62Zm3.76,7.72a3.77,3.77,0,0,1-3.76,3.94,3.83,3.83,0,0,1-3.77-4v0a3.75,3.75,0,0,1,3.73-3.94,3.84,3.84,0,0,1,3.8,4Z" id="path78" style="fill:#002e52;fill-opacity:1" />
      <polygon class="cls-1" points="623.72 61.91 619.12 61.91 616.48 66.07 613.87 61.91 609.17 61.91 614.02 69.17 608.96 76.68 613.55 76.68 616.4 72.23 619.22 76.68 623.93 76.68 618.87 69.13 623.72 61.91" id="polygon80" style="fill:#002e52;fill-opacity:1" />
      <polygon class="cls-1" points="117.4 66.16 115.09 66.16 115.09 76.65 122.63 76.65 122.63 74.55 117.4 74.55 117.4 66.16" id="polygon82" style="fill:#002e52;fill-opacity:1" />
      <path class="cls-1" d="M129.36,68.56h.93c.08.85-.43,1.38-1.47,1.48l.2.95c1.78,0,2.77-.83,2.77-2.81v-2h-2.43Z" id="path84" style="fill:#002e52;fill-opacity:1" />
      <rect class="cls-1" x="139.86" y="66.16" width="2.31" height="10.49" id="rect86" style="fill:#002e52;fill-opacity:1" />
      <polygon class="cls-1" points="157.68 72.62 152.76 66.16 150.63 66.16 150.63 76.65 152.91 76.65 152.91 69.98 157.99 76.65 159.95 76.65 159.95 66.16 157.68 66.16 157.68 72.62" id="polygon88" style="fill:#002e52;fill-opacity:1" />
      <path class="cls-1" d="M172.58,70.37c-1.81-.46-2.26-.69-2.26-1.38v0c0-.51.46-.91,1.35-.91a4.94,4.94,0,0,1,2.72,1l1.2-1.73A6,6,0,0,0,171.7,66c-2.15,0-3.68,1.26-3.68,3.16v0c0,2.09,1.37,2.67,3.48,3.21,1.75.45,2.11.75,2.11,1.33v0c0,.62-.57,1-1.51,1A4.79,4.79,0,0,1,169,73.49l-1.36,1.63a6.63,6.63,0,0,0,4.45,1.68c2.26,0,3.85-1.17,3.85-3.25v0C175.91,71.69,174.71,70.93,172.58,70.37Z" id="path90" style="fill:#002e52;fill-opacity:1" />
      <polygon class="cls-1" points="182.79 68.29 185.98 68.29 185.98 76.65 188.29 76.65 188.29 68.29 191.48 68.29 191.48 66.16 182.79 66.16 182.79 68.29" id="polygon92" style="fill:#002e52;fill-opacity:1" />
      <rect class="cls-1" x="199.21" y="66.16" width="2.31" height="10.49" id="rect94" style="fill:#002e52;fill-opacity:1" />
      <polygon class="cls-1" points="209.24 68.29 212.43 68.29 212.43 76.65 214.74 76.65 214.74 68.29 217.93 68.29 217.93 66.16 209.24 66.16 209.24 68.29" id="polygon96" style="fill:#002e52;fill-opacity:1" />
      <path class="cls-1" d="M232.22,72.17c0,1.66-.86,2.52-2.27,2.52s-2.26-.89-2.26-2.59V66.16h-2.31v6c0,3.08,1.73,4.66,4.54,4.66s4.6-1.56,4.6-4.74V66.16h-2.3Z" id="path98" style="fill:#002e52;fill-opacity:1" />
      <polygon class="cls-1" points="241.98 68.29 245.17 68.29 245.17 76.65 247.48 76.65 247.48 68.29 250.67 68.29 250.67 66.16 241.98 66.16 241.98 68.29" id="polygon100" style="fill:#002e52;fill-opacity:1" />
      <path class="cls-1" d="M272.72,66.16h-4.09V76.65h4.09a5.25,5.25,0,0,0,5.58-5.24v0A5.23,5.23,0,0,0,272.72,66.16Zm3.17,5.28a3,3,0,0,1-3.17,3.13h-1.78V68.24h1.78a3,3,0,0,1,3.17,3.17Z" id="path102" style="fill:#002e52;fill-opacity:1" />
      <polygon class="cls-1" points="288.5 72.39 293.44 72.39 293.44 70.34 288.5 70.34 288.5 68.22 294.12 68.22 294.12 66.16 286.2 66.16 286.2 76.65 294.19 76.65 294.19 74.6 288.5 74.6 288.5 72.39" id="polygon104" style="fill:#002e52;fill-opacity:1" />
      <path class="cls-1" d="M321.19,69.65v0a3.28,3.28,0,0,0-.9-2.39,4.18,4.18,0,0,0-3.06-1.07h-4.79V76.65h2.31V73.29h1.81l2.25,3.36h2.69l-2.56-3.75A3.25,3.25,0,0,0,321.19,69.65Zm-2.34.12c0,.89-.64,1.49-1.77,1.49h-2.33v-3H317c1.12,0,1.81.51,1.81,1.5Z" id="path106" style="fill:#002e52;fill-opacity:1" />
      <polygon class="cls-1" points="331.42 72.39 336.36 72.39 336.36 70.34 331.42 70.34 331.42 68.22 337.04 68.22 337.04 66.16 329.12 66.16 329.12 76.65 337.11 76.65 337.11 74.6 331.42 74.6 331.42 72.39" id="polygon108" style="fill:#002e52;fill-opacity:1" />
      <path class="cls-1" d="M350,74.7a3.12,3.12,0,0,1-3-3.29v0a3.11,3.11,0,0,1,3-3.27,3.9,3.9,0,0,1,2.69,1.18l1.46-1.69a5.64,5.64,0,0,0-9.6,3.81v0a5.29,5.29,0,0,0,5.38,5.39,5.38,5.38,0,0,0,4.3-1.87l-1.47-1.49A3.78,3.78,0,0,1,350,74.7Z" id="path110" style="fill:#002e52;fill-opacity:1" />
      <polygon class="cls-1" points="368.49 70.31 364.23 70.31 364.23 66.16 361.93 66.16 361.93 76.65 364.23 76.65 364.23 72.44 368.49 72.44 368.49 76.65 370.8 76.65 370.8 66.16 368.49 66.16 368.49 70.31" id="polygon112" style="fill:#002e52;fill-opacity:1" />
      <polygon class="cls-1" points="381.46 72.39 386.4 72.39 386.4 70.34 381.46 70.34 381.46 68.22 387.08 68.22 387.08 66.16 379.17 66.16 379.17 76.65 387.15 76.65 387.15 74.6 381.46 74.6 381.46 72.39" id="polygon114" style="fill:#002e52;fill-opacity:1" />
      <path class="cls-1" d="M403.81,69.65v0a3.28,3.28,0,0,0-.9-2.39,4.19,4.19,0,0,0-3.06-1.07h-4.79V76.65h2.3V73.29h1.82l2.24,3.36h2.7l-2.56-3.75A3.25,3.25,0,0,0,403.81,69.65Zm-2.34.12c0,.89-.65,1.49-1.77,1.49h-2.34v-3h2.3c1.12,0,1.81.51,1.81,1.5Z" id="path116" style="fill:#002e52;fill-opacity:1" />
      <path class="cls-1" d="M416.73,74.7a3.11,3.11,0,0,1-3-3.29v0a3.11,3.11,0,0,1,3-3.27,3.88,3.88,0,0,1,2.68,1.18l1.47-1.69A5.4,5.4,0,0,0,416.75,66a5.33,5.33,0,0,0-5.47,5.43v0a5.29,5.29,0,0,0,5.38,5.39A5.38,5.38,0,0,0,421,75l-1.47-1.49A3.8,3.8,0,0,1,416.73,74.7Z" id="path118" style="fill:#002e52;fill-opacity:1" />
      <polygon class="cls-1" points="435.21 70.31 430.96 70.31 430.96 66.16 428.65 66.16 428.65 76.65 430.96 76.65 430.96 72.44 435.21 72.44 435.21 76.65 437.52 76.65 437.52 66.16 435.21 66.16 435.21 70.31" id="polygon120" style="fill:#002e52;fill-opacity:1" />
      <polygon class="cls-1" points="448.19 72.39 453.13 72.39 453.13 70.34 448.19 70.34 448.19 68.22 453.8 68.22 453.8 66.16 445.89 66.16 445.89 76.65 453.88 76.65 453.88 74.6 448.19 74.6 448.19 72.39" id="polygon122" style="fill:#002e52;fill-opacity:1" />
      <path class="cls-1" d="M53.31,84c-.24-2.21-.29-4.74-1.15-5s-1.37.24-1.94.1-2.55.52-3.62.27a12.85,12.85,0,0,1-4-2c-1.36-1-4-3.07-5.27-3.8s-2.58-.44-2.83-1-3.13-5.54-3.9-5.84-1.05-2.23-1.52-3.28c-.14-.31-.35-.66-.54-1l1-1.46a.32.32,0,0,1,0-.09,6.62,6.62,0,0,0-.31-5,38.32,38.32,0,0,1-2.21-4h0L27,51.67a2.46,2.46,0,0,1-.09-.34l-.43-1.51-.08-5.29c.12-.28,1.64.93,1.64.93v0l.11,0c0-.25-.05-.45-.07-.63l2.43,1.07,5.73,2.56c2,.89,2,1.18,2.23,1.41s.28.19.68.2,4.78,1.87,5.45,2.12a2.53,2.53,0,0,1,1.08.67c.18.19.32-.34.32-.34a6.66,6.66,0,0,0,.92.44c.11,0,.15-.43.15-.43a4,4,0,0,0,.48.25c.1,0,.31-.18.35-.31s-.17-.42-.17-.42a.63.63,0,0,0-.14-.5,6.7,6.7,0,0,0-1.49-1.16c-.56-.35-.8-.63-1.28-.9a2.46,2.46,0,0,1-1.13-1.21c-.11-.41.43-.67.7-1s.74-.66.73-1.3-.41-.58-.54-.59-.17.38-.27.62A4.62,4.62,0,0,1,42.8,47.1c-.34.09-1.13.12-1.5.22a1.85,1.85,0,0,0-.72.5H40a13.75,13.75,0,0,1-2.71-2.55A17.16,17.16,0,0,0,33,42.11l-2.78-1-.81-.5.18-.48c-.19-.2-.79-.33-.93-.45-.91-.85-3.06-2.74-3.88-3.56s-3.47-1.77-4.85-2.87-1.45-1.05-1.64-.93-.29-1.13.05-1.61,2.8-3.4,2.66-4.85c0,0,0-5-3.28-5.9s-8.89.46-9.2,2.28S8.1,26,8.31,26.18s.61.86.43,1.23-.13.73-.57,1.07-.51.68-.33,1,.86.31.85.52-.34.44-.19.58a2.91,2.91,0,0,0,.74.34s.47.75.33.9-.61.41-.32.61.73.29.67.43-.3.89.31,1,3.06.12,2.64.36-2.61,1-3.16,2.13a5,5,0,0,0,.46,4,2.21,2.21,0,0,1,.35.89c.43.65.49,1.85-.94,4a1.91,1.91,0,0,0,.23.38c.43.52-.45.8-1.17,1s-2.86.77-3.79.94l-3-1L.75,48.37l.13.37-.88,1,.42.58.24,0,.16.41.8.46.62-.07.59,0,.6-.23a3.59,3.59,0,0,0,1.76-.73,2.74,2.74,0,0,1,.71-.47c.7,0,1.95.07,3.44.14,2,.08,3.18-.51,3.37-.12s1.33,3,1.95,4.78,3.3,6.65,3.18,8.11.38,1.61-.44,2.47-.65,1.51-1.31,2.3-1.73,2.86-2.29,3.72-2.54,3.7-2.17,4.1,1,.37,1.1.7A3.46,3.46,0,0,0,13,77.92c.5.88,1,1.16.9,2.16s-.54,11.8-2.3,13.25a6.86,6.86,0,0,1-5.23,1.4c-1.33-.18-3.43-1.07-3.77-.12s.9,3.37,5,4.83,6.71,2.67,7.52,1.81A3.36,3.36,0,0,0,15.88,98a4.65,4.65,0,0,1-.13-3.76c.61-1.54,3-6.89,3.32-9s-.38-5.61-.16-6c.11-.21.23-.74.49-1.41a8.77,8.77,0,0,1,.41-.92,7.63,7.63,0,0,1,.85-1.31A41.86,41.86,0,0,0,23.38,71l0,0,0,0c.38.56.72,1.07.93,1.45.6,1.1.79,2.29,2,3.4s.91,2,1.74,1.85.64-.79,1.94-.54a61.94,61.94,0,0,1,6.7,2.63c2.4,1,.94.84,8.3,3.72,1.82.72,1.29,1.33,1.24,1.79s1.17,1.23,1.61,1.49a6.42,6.42,0,0,1,2.06,3.4c.27,1.53.22,2.42,1.11,2.94s2,1.2,2.44.27a6.2,6.2,0,0,0,.73-4.95A18.48,18.48,0,0,1,53.31,84Z" id="path124" style="fill:#002e52;fill-opacity:1" />
      <path class="cls-1" d="M100.47,81.5a7.57,7.57,0,0,0-2.36-.24c-.9,0-1,.4-1,.4s-.8.23-1.34.41a4.42,4.42,0,0,1-1.45.26l-2.19-.59a.89.89,0,0,0-.32-.55A16.38,16.38,0,0,0,88.94,80c-.27,0-.29.23-.77.06a19.59,19.59,0,0,1-2.32-1,20.26,20.26,0,0,1-2.61-1.41c-.32-.3-.67-.91-1.13-1s-1.17.43-1.49.53a.71.71,0,0,1-.52,0l-.3-1.06a1.91,1.91,0,0,0,.93-1.58,53.46,53.46,0,0,0-1-7.09,32.7,32.7,0,0,1-.15-6.3s.5-.12.71-.19c.46-.18.74,0,1-.19s.18-.86,0-2.37a5.85,5.85,0,0,1,.15-2.12,5.27,5.27,0,0,0,.19-1,8.17,8.17,0,0,0-.71-4.52c-.41-.84-.82-2.63-1.14-3.54s-1.15-2.83-1.26-3.2a3.11,3.11,0,0,0-.56-.85,3.21,3.21,0,0,0,.58-.95,8.56,8.56,0,0,0-.14-1.71,28.5,28.5,0,0,0-.33-3.38,46.68,46.68,0,0,0-.85-6.63c-.14-.62-2.47-7-2.59-7.45a21.52,21.52,0,0,0-1-2.25A21.46,21.46,0,0,0,71,17.54c-.9-.81-.8-1.27-2.16-2-1-.52-1.54-.87-1.78-1l0,0a3.26,3.26,0,0,1,1-.32c.17,0,.25-.13.51-.42a1.33,1.33,0,0,0,.34-.48,2.89,2.89,0,0,1,.5-.65c.11-.08.25-.6.35-.74s.45-.17.56-.51a1.93,1.93,0,0,0,.12-1c.13,0,.21,0,.18-.06s-.22-.19-.23-.24v0l-.1-.08,0-.09a.19.19,0,0,0,0-.18V9.68a1.35,1.35,0,0,0,.2-.36c0-.12,0-.16-.13-.17l.08-.07A.76.76,0,0,0,70.57,9a1.55,1.55,0,0,0,0-.15c0-.15-.06-.29-.06-.34h0l0-.05,0-.05,0,0a.25.25,0,0,0,0-.15.37.37,0,0,0-.05-.11h0l0,0c.1-.07,0-.18,0-.28s.23,0,.28-.13-.15-.36-.21-.58.14-.26.1-.36a.78.78,0,0,1-.15-.49c0-.3.13-.12.15-.26s.08-.3.16-.29.1-.32-.14-.56a2.89,2.89,0,0,0-.61-.42s.33-.28.33-.43a1.6,1.6,0,0,0-.78-1c-.06,0-.45-.18-.58-.23s-.77-.22-.77-.22A1.13,1.13,0,0,0,68.23,2a3,3,0,0,0-.89-.53,4.52,4.52,0,0,0-.81-.3c-.12,0-.18.19-.29.15l0,0,0-.05A2,2,0,0,1,66,1C66,.9,66,.81,65.89.72L65.8.6,65.68.49a.37.37,0,0,0-.12-.07l-.13,0h-.11A1.77,1.77,0,0,0,64.9.08a1.12,1.12,0,0,0-1,.05l-.1.07-.08.15a1.06,1.06,0,0,0-.34,0c-.07,0-.36-.24-.46-.25a1.19,1.19,0,0,0-.48.23c0,.05-.13.35-.13.35s0,0-.23-.19a.3.3,0,0,0-.41,0,1.55,1.55,0,0,0-.57-.21,2.69,2.69,0,0,0-.66.47S60.13.73,60,1a.72.72,0,0,0-.72.12,1.25,1.25,0,0,0-.24.34l-.11,0-.28.08-.16,0-.18,0-.18,0L58,1.75a1.17,1.17,0,0,0-.23.21l0,0a.84.84,0,0,0-.27.11c-.21.15-.56.62-.7.68s-.45.21-.5.47.21.5.08.62-.32.28-.52.21a.2.2,0,0,0,.13.15,3.15,3.15,0,0,0-.24.4,2.46,2.46,0,0,0-.1.52,1.71,1.71,0,0,1,0,.67,1,1,0,0,0,0,.46.33.33,0,0,1,.29.14c.08.15,0,.31.12.36a4.24,4.24,0,0,1,.61.27,6.77,6.77,0,0,0-.44,1.07c0,.13.3.24.26.4a3.6,3.6,0,0,1-.69,1,4.32,4.32,0,0,0-.77.93.48.48,0,0,0,.19.5c.18.09.51.13.58.2a.81.81,0,0,1,.13.53.53.53,0,0,0-.13.42c.06.13.35.23.57.54s-.37.17-.42.5c-.09.48.55.47.55.53s-.55.53-.46,1.1c0,.35.16.81,1.12,1.18a9.08,9.08,0,0,0,1.76.5c.25.12-.14.41.27,1.15a6.86,6.86,0,0,0,1,1.14,2.81,2.81,0,0,0-.08.55c0,.28-.57.51-.78,1.36s.21,1.65.34,3,0,1.15-.09,1.47a12.35,12.35,0,0,0,0,2c0,.64.26,3,.26,3l.36,1.51,1.46,4-.38.23c-.42.25-.63,1-1.49.92-.45,0-.56-.37-1.31-.54a3.59,3.59,0,0,0-1.67.06c-.85.16-.7.32-1.49.45a2.17,2.17,0,0,0-1.13.39.54.54,0,0,0-.23.36c0,.31.41.55.43.56a1.91,1.91,0,0,0,1.16.1s-.34,1.33.17,1.8a.83.83,0,0,0,.48.17c-.37.29-.63.49-.67.54a9.34,9.34,0,0,1-4,1.64,3,3,0,0,0-2.17,1l-10.7-7.69a11.45,11.45,0,0,0-1,.8,2.57,2.57,0,0,0-.63,1.09l10.26,7.72s-.75.5-.37,1.17,2.7,1.65,3.73,2,.84-.47.84-.47L52.21,49l1.12-.63a2.57,2.57,0,0,0,.91-1.25l-.6-.55a20,20,0,0,1,2-2.09c.9-.81,4.54-2.49,7.71-4,.17.48.31.87.38,1.08a2.72,2.72,0,0,1,.16,1.71,1.59,1.59,0,0,0,.63,1.38c.32.24.2.53.31.81a2.85,2.85,0,0,0,.39.64,9.63,9.63,0,0,0-.47,1.23c-.08.37-.28,1-.42,1.77s-.08,1.24-.2,1.68-.84,2.88-1.06,3.34a10.68,10.68,0,0,0-1,2.11c.05.22.39.41.39.41a39,39,0,0,0-.8,4.5,24.56,24.56,0,0,0,.24,8.27c.09.43-.35,2.67-.48,4.15a3.32,3.32,0,0,0,1.12,2.93,26.48,26.48,0,0,1,2.28,2.7A26.36,26.36,0,0,0,68.16,84a35.61,35.61,0,0,1,3,4,1.86,1.86,0,0,0,.2.93,16.17,16.17,0,0,1,.77,2.46s-.45-.38-.6,0a2.76,2.76,0,0,0,.06,1.2,6.35,6.35,0,0,0-.7.12c-.32.08-.48.63-.48.63a2.16,2.16,0,0,0-.72.91c-.2.54-1.09,1.12-2.3,1.69a5.47,5.47,0,0,0-1.94,1.28A2.26,2.26,0,0,0,64.61,99c0,.37.26,1.11,2.47,1.27a8.93,8.93,0,0,0,5-.75,12.92,12.92,0,0,1,3.85-1.23,19.94,19.94,0,0,0,3.3-.65c1-.29,1.05-1.22.94-2.37a20.49,20.49,0,0,0-.83-3.4c-.13-.41-.55-.15-.55-.15a8,8,0,0,0-1.23-2.11,13.86,13.86,0,0,1-1.67-3.32c-.08-.28-.45-.29-.45-.29a32.27,32.27,0,0,0-3-7.93,15.05,15.05,0,0,0-2.76-3.59,20.36,20.36,0,0,1,.45-3.22c.31-1,1.75-4.31,1.75-4.31l1,3.25.2-.07s.8,2.48,1.14,3.32a6.87,6.87,0,0,0,1.09,1.94A34.26,34.26,0,0,0,78,79c.67.51.3.77,1.51,1a17.42,17.42,0,0,1,3.39,1.22c.2.17.34,0,.46,0s1.45.43,2.24.61.57.56.78.61,2.15.2,3.36.48a27.83,27.83,0,0,0,2.84.33c.25.16.22.34.22.34s0,.24,0,.38a5.37,5.37,0,0,0,.3,1.35c.2.56,1,.89,1,.89a2.37,2.37,0,0,0,.12.56.77.77,0,0,0,.54.42s0,.4,0,.7.08.71.1,1.15a10.09,10.09,0,0,1-.31,2A7,7,0,0,0,94,93.87c.26.85.75,1.2,1.27,1.2.72,0,4.06-1.21,4.42-3.44.41-2.51,1.39-5.61,1.61-7.66A2.57,2.57,0,0,0,100.47,81.5ZM70.55,8.28a.43.43,0,0,1,0,.05v0l0-.11A.12.12,0,0,1,70.55,8.28Zm-.24.34v0a.43.43,0,0,0,0,.05.53.53,0,0,1,0,.12.56.56,0,0,1,0,.13s0,.08,0,.12l0,.1h0A1.74,1.74,0,0,1,70.31,8.62ZM58.42,1.86l-.56.1a.82.82,0,0,1,.2-.12l.16-.05.16,0h.22ZM65.36.41l.06,0a.53.53,0,0,1,.1.06l.09.08a.41.41,0,0,1,.07.11.45.45,0,0,1,.06.12C65.63.68,65.5.54,65.36.41ZM81.08,79.5l-.15-.15a3.86,3.86,0,0,1,.52.13c.32.09.4,0,.65,0s.24-.4.24-.4a2,2,0,0,0,.54.41c.21.07.17,0,.49,0s.48.37.52.49.24.2.39.28.62-.21.79-.29.45.11.63.19,2,.88,2,.88A22.08,22.08,0,0,1,81.08,79.5Z" id="path126" style="fill:#002e52;fill-opacity:1" />
    </g>
  </g>
</svg>